<?xml version="1.0" encoding="utf-8"?>
<svg width="62" height="62" viewBox="0 0 62 62" fill="none" xmlns="http://www.w3.org/2000/svg">
<rect width="62" height="62" fill="black"/>
<path d="M21.085 43H33.685V42.58C30.395 42.475 29.835 41.915 29.835 40.515V32.465H31.865C39.88 32.465 42.575 29.21 42.575 25.465C42.575 21.475 40.09 18.605 32.005 18.605H21.085V19.06C23.99 19.165 24.725 19.76 24.725 21.09V40.515C24.725 41.845 23.99 42.405 21.085 42.51V43ZM29.835 31.835V19.235H31.795C36.03 19.235 37.22 21.755 37.22 25.43C37.22 29.665 36.135 31.835 31.69 31.835H29.835Z" fill="white"/>
</svg>
